<svg xmlns="http://www.w3.org/2000/svg" viewBox="0 0 150 150"><g fill="#f8c848" transform="translate(0.000000,150.000000) scale(0.100000,-0.100000)"><path d="M697 1268 c-44 -56 -240 -336 -257 -367 -12 -23 -10 -27 19 -51 l31
-26 0 -236 0 -236 48 -51 c38 -40 55 -51 79 -51 30 0 63 21 63 41 0 5 32 9 70
9 55 0 70 -3 70 -15 0 -18 31 -35 66 -35 29 0 98 65 115 108 5 13 9 124 9 247
l0 225 25 16 c14 9 25 25 25 36 0 11 -59 103 -131 204 -119 167 -167 224 -190
224 -4 0 -23 -19 -42 -42z m26 -409 c9 -12 17 -29 17 -38 0 -10 7 -5 18 14 26
42 46 56 82 57 92 3 138 -101 79 -176 -42 -53 -125 -41 -159 23 -11 20 -19 29
-20 20 0 -27 -39 -67 -71 -74 -65 -14 -119 35 -119 109 0 40 39 93 73 98 34 6
80 -10 100 -33z m45 -241 c26 -26 8 -88 -25 -88 -20 0 -34 46 -23 75 10 27 29
32 48 13z"/></g><g fill="#b8a0f8" transform="translate(0.000000,150.000000) scale(0.100000,-0.100000)"><path d="M631 794 c0 -11 3 -14 6 -6 3 7 2 16 -1 19 -3 4 -6 -2 -5 -13z M701
794 c0 -11 3 -14 6 -6 3 7 2 16 -1 19 -3 4 -6 -2 -5 -13z M831 794 c0 -11 3
-14 6 -6 3 7 2 16 -1 19 -3 4 -6 -2 -5 -13z M901 794 c0 -11 3 -14 6 -6 3 7 2
16 -1 19 -3 4 -6 -2 -5 -13z"/></g><g fill="#101018" transform="translate(0.000000,150.000000) scale(0.100000,-0.100000)"><path d="M720 605 c-11 -29 3 -75 23 -75 21 0 37 22 37 50 0 50 -44 68 -60 25z"/></g><g fill="#f8f8f0" transform="translate(0.000000,150.000000) scale(0.100000,-0.100000)"><path d="M623 892 c-34 -5 -73 -58 -73 -98 0 -74 54 -123 119 -109 32 7 71 47
71 74 1 9 9 0 20 -20 63 -119 233 -27 175 94 -19 40 -52 60 -95 59 -36 -1 -56
-15 -82 -57 -11 -19 -18 -24 -18 -14 0 41 -64 80 -117 71z m77 -77 c19 -23 3
-57 -27 -53 -34 4 -51 31 -34 52 17 20 45 21 61 1z m201 -1 c17 -21 0 -49 -31
-49 -31 0 -48 28 -31 49 8 9 21 16 31 16 10 0 23 -7 31 -16z"/></g><g fill="#101018" transform="translate(0.000000,150.000000) scale(0.100000,-0.100000)"><path d="M652 821 c-8 -4 -12 -19 -10 -32 2 -18 9 -24 28 -24 19 0 26 6 28 24
3 20 -11 41 -28 41 -3 0 -11 -4 -18 -9z M852 821 c-8 -4 -12 -19 -10 -32 2
-18 9 -24 28 -24 19 0 26 6 28 24 3 20 -11 41 -28 41 -3 0 -11 -4 -18 -9z"/></g></svg>
