<svg xmlns="http://www.w3.org/2000/svg" viewBox="0 0 150 150"><g fill="#f8c848" transform="translate(0.000000,150.000000) scale(0.100000,-0.100000)"><path d="M668 1243 c-19 -16 -134 -120 -256 -231 -237 -217 -249 -234 -197
-268 l25 -16 0 -182 c1 -126 4 -186 13 -197 18 -24 52 -39 89 -39 26 0 37 -6
50 -30 15 -27 22 -30 67 -30 51 0 81 17 81 46 0 11 21 14 105 14 l105 0 0 103
c0 103 0 103 -30 125 -16 13 -30 29 -30 37 0 21 10 19 37 -7 l23 -21 0 361 0
362 -24 0 c-13 0 -39 -12 -58 -27z m20 -399 c86 -91 -8 -248 -122 -200 -97 40
-99 189 -3 231 45 20 86 10 125 -31z"/></g><g fill="#b8a0f8" transform="translate(0.000000,150.000000) scale(0.100000,-0.100000)"><path d="M750 915 c0 -230 4 -355 10 -355 6 0 10 4 10 9 0 14 32 23 43 12 13
-13 -8 -40 -40 -52 -22 -8 -23 -13 -23 -114 l0 -105 100 0 c96 0 101 -1 109
-24 11 -27 29 -36 76 -36 47 0 65 9 76 36 7 20 16 24 48 24 84 0 100 43 101
266 0 148 0 151 25 172 14 12 25 30 25 40 0 11 -94 104 -236 233 -222 202
-281 249 -311 249 -10 0 -13 -75 -13 -355z m184 -39 c50 -21 76 -60 76 -116 0
-83 -74 -144 -146 -120 -108 36 -115 190 -10 236 39 17 40 17 80 0z M928 823
c6 -2 18 -2 25 0 6 3 1 5 -13 5 -14 0 -19 -2 -12 -5z M981 784 c0 -11 3 -14 6
-6 3 7 2 16 -1 19 -3 4 -6 -2 -5 -13z M890 780 c0 -7 3 -10 7 -7 3 4 3 10 0
14 -4 3 -7 0 -7 -7z M905 750 c3 -5 8 -10 11 -10 3 0 2 5 -1 10 -3 6 -8 10
-11 10 -3 0 -2 -4 1 -10z M964 748 c-4 -7 -3 -8 4 -4 7 4 12 9 12 12 0 8 -9 4
-16 -8z M548 823 c6 -2 18 -2 25 0 6 3 1 5 -13 5 -14 0 -19 -2 -12 -5z M601
784 c0 -11 3 -14 6 -6 3 7 2 16 -1 19 -3 4 -6 -2 -5 -13z M510 780 c0 -7 3
-10 7 -7 3 4 3 10 0 14 -4 3 -7 0 -7 -7z M525 750 c3 -5 8 -10 11 -10 3 0 2 5
-1 10 -3 6 -8 10 -11 10 -3 0 -2 -4 1 -10z M584 748 c-4 -7 -3 -8 4 -4 12 7
16 16 8 16 -3 0 -8 -5 -12 -12z"/></g><g fill="#101018" transform="translate(0.000000,150.000000) scale(0.100000,-0.100000)"><path d="M692 574 c2 -9 15 -26 30 -37 26 -19 28 -19 53 -3 27 18 42 42 32 53
-3 3 -18 -4 -33 -16 l-27 -21 -22 20 c-26 24 -38 26 -33 4z"/></g><g fill="#f8f8f0" transform="translate(0.000000,150.000000) scale(0.100000,-0.100000)"><path d="M563 875 c-67 -29 -92 -118 -53 -183 63 -103 210 -55 210 69 0 42 -5
54 -32 83 -39 41 -80 51 -125 31z m32 -65 c27 -30 7 -70 -34 -70 -41 0 -59 32
-36 66 19 29 46 31 70 4z M854 876 c-105 -46 -98 -200 10 -236 72 -24 146 37
146 120 0 56 -26 95 -76 116 -40 17 -41 17 -80 0z m121 -66 c27 -30 7 -70 -34
-70 -41 0 -59 32 -36 66 19 29 46 31 70 4z"/></g><g fill="#101018" transform="translate(0.000000,150.000000) scale(0.100000,-0.100000)"><path d="M524 795 c-7 -29 10 -55 36 -55 24 0 42 24 38 52 -2 18 -10 24 -35
26 -28 3 -33 -1 -39 -23z M904 806 c-9 -23 -1 -48 19 -60 25 -16 52 4 52 40 0
25 -4 29 -33 32 -22 2 -34 -2 -38 -12z"/></g></svg>
